<?xml version="1.0" standalone="no"?>
<!DOCTYPE svg PUBLIC "-//W3C//DTD SVG 20010904//EN"
 "http://www.w3.org/TR/2001/REC-SVG-20010904/DTD/svg10.dtd">
<svg version="1.0" xmlns="http://www.w3.org/2000/svg"
 width="512.000000pt" height="512.000000pt" viewBox="0 0 512.000000 512.000000"
 preserveAspectRatio="xMidYMid meet">
<metadata>
Created by potrace 1.11, written by Peter Selinger 2001-2013
</metadata>
<g transform="translate(0.000000,512.000000) scale(0.100000,-0.100000)"
fill="#000000" stroke="none">
<path d="M960 2519 l0 -2359 440 0 c412 0 440 1 441 18 0 9 1 396 1 860 l1
842 31 1 c41 1 359 1 413 0 36 -1 44 -5 64 -38 13 -21 26 -42 28 -48 2 -5 27
-46 55 -91 28 -44 56 -89 63 -100 6 -10 53 -84 103 -164 50 -80 97 -154 103
-165 7 -11 23 -38 37 -60 14 -22 30 -49 37 -60 18 -31 262 -422 308 -495 23
-36 102 -163 176 -282 l134 -218 527 0 528 0 -18 30 c-20 36 -458 711 -470
725 -4 6 -59 89 -121 185 -62 96 -150 234 -197 305 -116 178 -248 380 -327
502 -37 57 -67 107 -67 112 0 5 19 16 43 26 124 48 319 179 422 282 218 218
334 440 396 756 29 150 31 471 4 597 -3 14 -10 48 -16 75 -77 391 -365 749
-753 935 -141 67 -320 125 -456 146 -19 3 -37 7 -40 9 -3 2 -37 7 -75 10 -39
4 -83 9 -100 12 -16 3 -409 7 -872 8 l-843 3 0 -2359z m1665 1617 c17 -4 50
-12 75 -17 297 -64 498 -287 535 -594 7 -55 7 -216 1 -255 -2 -14 -7 -46 -11
-73 -3 -26 -17 -79 -30 -118 -70 -205 -212 -350 -405 -414 -143 -48 -204 -53
-601 -54 l-346 -1 0 771 0 771 376 -5 c207 -2 390 -7 406 -11z"/>
</g>
</svg>
